<?xml version="1.0" encoding="UTF-8" standalone="no"?>
<!DOCTYPE svg PUBLIC "-//W3C//DTD SVG 1.1//EN"
 "http://www.w3.org/Graphics/SVG/1.1/DTD/svg11.dtd">
<!-- Generated by graphviz version 2.42.4 (0)
 -->
<!-- Title: ER Pages: 1 -->
<svg width="1140pt" height="745pt"
 viewBox="0.00 0.00 1139.80 745.30" xmlns="http://www.w3.org/2000/svg" xmlns:xlink="http://www.w3.org/1999/xlink">
<g id="graph0" class="graph" transform="scale(1 1) rotate(0) translate(14.4 730.9)">
<title>ER</title>
<polygon fill="white" stroke="transparent" points="-14.4,14.4 -14.4,-730.9 1125.4,-730.9 1125.4,14.4 -14.4,14.4"/>
<!-- azienda -->
<g id="node1" class="node">
<title>azienda</title>
<polygon fill="none" stroke="black" points="0,-371.5 0,-429.5 140,-429.5 140,-371.5 0,-371.5"/>
<text text-anchor="middle" x="26" y="-398.3" font-family="Arial" font-size="9.00">AZIENDA</text>
<polyline fill="none" stroke="black" points="52,-371.5 52,-429.5 "/>
<text text-anchor="start" x="58" y="-418.3" font-family="Arial" font-size="9.00">PK id</text>
<text text-anchor="start" x="58" y="-408.3" font-family="Arial" font-size="9.00">UK codice_acn</text>
<text text-anchor="start" x="58" y="-398.3" font-family="Arial" font-size="9.00">ragione_sociale</text>
<text text-anchor="start" x="58" y="-388.3" font-family="Arial" font-size="9.00">settore</text>
<text text-anchor="start" x="58" y="-378.3" font-family="Arial" font-size="9.00">tipologia_soggetto</text>
</g>
<!-- sede -->
<g id="node2" class="node">
<title>sede</title>
<polygon fill="none" stroke="black" points="229,-594.5 229,-642.5 338,-642.5 338,-594.5 229,-594.5"/>
<text text-anchor="middle" x="247.5" y="-616.3" font-family="Arial" font-size="9.00">SEDE</text>
<polyline fill="none" stroke="black" points="266,-594.5 266,-642.5 "/>
<text text-anchor="start" x="272" y="-631.3" font-family="Arial" font-size="9.00">PK id</text>
<text text-anchor="start" x="272" y="-621.3" font-family="Arial" font-size="9.00">FK azienda_id</text>
<text text-anchor="start" x="272" y="-611.3" font-family="Arial" font-size="9.00">codice</text>
<text text-anchor="start" x="272" y="-601.3" font-family="Arial" font-size="9.00">tipo_sede</text>
</g>
<!-- azienda&#45;&gt;sede -->
<g id="edge1" class="edge">
<title>azienda&#45;&gt;sede</title>
<path fill="none" stroke="black" d="M47,-429.9C47,-489.41 47,-618.5 47,-618.5 47,-618.5 221.95,-618.5 221.95,-618.5"/>
<polygon fill="black" stroke="black" points="221.95,-620.95 228.95,-618.5 221.95,-616.05 221.95,-620.95"/>
<text text-anchor="middle" x="179.5" y="-580.1" font-family="Arial" font-size="8.00">1:N</text>
</g>
<!-- asset -->
<g id="node4" class="node">
<title>asset</title>
<polygon fill="none" stroke="black" points="450.5,-569.5 450.5,-667.5 573.5,-667.5 573.5,-569.5 450.5,-569.5"/>
<text text-anchor="middle" x="471.5" y="-616.3" font-family="Arial" font-size="9.00">ASSET</text>
<polyline fill="none" stroke="black" points="492.5,-569.5 492.5,-667.5 "/>
<text text-anchor="start" x="498.5" y="-656.3" font-family="Arial" font-size="9.00">PK id</text>
<text text-anchor="start" x="498.5" y="-646.3" font-family="Arial" font-size="9.00">FK azienda_id</text>
<text text-anchor="start" x="498.5" y="-636.3" font-family="Arial" font-size="9.00">FK sede_id</text>
<text text-anchor="start" x="498.5" y="-626.3" font-family="Arial" font-size="9.00">FK tipo_asset_id</text>
<text text-anchor="start" x="498.5" y="-616.3" font-family="Arial" font-size="9.00">codice</text>
<text text-anchor="start" x="498.5" y="-606.3" font-family="Arial" font-size="9.00">nome</text>
<text text-anchor="start" x="498.5" y="-596.3" font-family="Arial" font-size="9.00">livello_criticita</text>
<text text-anchor="start" x="498.5" y="-586.3" font-family="Arial" font-size="9.00">stato</text>
<text text-anchor="start" x="498.5" y="-576.3" font-family="Arial" font-size="9.00">versione</text>
</g>
<!-- azienda&#45;&gt;asset -->
<g id="edge2" class="edge">
<title>azienda&#45;&gt;asset</title>
<path fill="none" stroke="black" d="M94,-429.84C94,-482.05 94,-585.67 94,-585.67 94,-585.67 443.32,-585.67 443.32,-585.67"/>
<polygon fill="black" stroke="black" points="443.32,-588.12 450.32,-585.67 443.32,-583.22 443.32,-588.12"/>
<text text-anchor="middle" x="283.5" y="-710.1" font-family="Arial" font-size="8.00">1:N</text>
</g>
<!-- servizio -->
<g id="node5" class="node">
<title>servizio</title>
<polygon fill="none" stroke="black" points="449.5,-450.5 449.5,-528.5 574.5,-528.5 574.5,-450.5 449.5,-450.5"/>
<text text-anchor="middle" x="476" y="-487.3" font-family="Arial" font-size="9.00">SERVIZIO</text>
<polyline fill="none" stroke="black" points="502.5,-450.5 502.5,-528.5 "/>
<text text-anchor="start" x="508.5" y="-517.3" font-family="Arial" font-size="9.00">PK id</text>
<text text-anchor="start" x="508.5" y="-507.3" font-family="Arial" font-size="9.00">FK azienda_id</text>
<text text-anchor="start" x="508.5" y="-497.3" font-family="Arial" font-size="9.00">codice</text>
<text text-anchor="start" x="508.5" y="-487.3" font-family="Arial" font-size="9.00">nome</text>
<text text-anchor="start" x="508.5" y="-477.3" font-family="Arial" font-size="9.00">livello_criticita</text>
<text text-anchor="start" x="508.5" y="-467.3" font-family="Arial" font-size="9.00">RTO / RPO</text>
<text text-anchor="start" x="508.5" y="-457.3" font-family="Arial" font-size="9.00">versione</text>
</g>
<!-- azienda&#45;&gt;servizio -->
<g id="edge3" class="edge">
<title>azienda&#45;&gt;servizio</title>
<path fill="none" stroke="black" d="M140.04,-415.75C264.67,-415.75 512,-415.75 512,-415.75 512,-415.75 512,-443.47 512,-443.47"/>
<polygon fill="black" stroke="black" points="509.55,-443.47 512,-450.47 514.45,-443.47 509.55,-443.47"/>
<text text-anchor="middle" x="283.5" y="-484.1" font-family="Arial" font-size="8.00">1:N</text>
</g>
<!-- dipendenza -->
<g id="node8" class="node">
<title>dipendenza</title>
<polygon fill="none" stroke="black" points="676,-373.5 676,-451.5 887,-451.5 887,-373.5 676,-373.5"/>
<text text-anchor="middle" x="740.5" y="-410.3" font-family="Arial" font-size="9.00">DIPENDENZA_FORNITORE</text>
<polyline fill="none" stroke="black" points="805,-373.5 805,-451.5 "/>
<text text-anchor="start" x="811" y="-440.3" font-family="Arial" font-size="9.00">PK id</text>
<text text-anchor="start" x="811" y="-430.3" font-family="Arial" font-size="9.00">FK azienda_id</text>
<text text-anchor="start" x="811" y="-420.3" font-family="Arial" font-size="9.00">FK fornitore_id</text>
<text text-anchor="start" x="811" y="-410.3" font-family="Arial" font-size="9.00">FK asset_id</text>
<text text-anchor="start" x="811" y="-400.3" font-family="Arial" font-size="9.00">FK servizio_id</text>
<text text-anchor="start" x="811" y="-390.3" font-family="Arial" font-size="9.00">tipo_dipendenza</text>
<text text-anchor="start" x="811" y="-380.3" font-family="Arial" font-size="9.00">livello_criticita</text>
</g>
<!-- azienda&#45;&gt;dipendenza -->
<g id="edge5" class="edge">
<title>azienda&#45;&gt;dipendenza</title>
<path fill="none" stroke="black" d="M140.17,-401.5C140.17,-401.5 668.79,-401.5 668.79,-401.5"/>
<polygon fill="black" stroke="black" points="668.79,-403.95 675.79,-401.5 668.79,-399.05 668.79,-403.95"/>
<text text-anchor="middle" x="387.5" y="-403.1" font-family="Arial" font-size="8.00">1:N</text>
</g>
<!-- persona -->
<g id="node9" class="node">
<title>persona</title>
<polygon fill="none" stroke="black" points="219,-144.5 219,-202.5 348,-202.5 348,-144.5 219,-144.5"/>
<text text-anchor="middle" x="247.5" y="-171.3" font-family="Arial" font-size="9.00">PERSONA</text>
<polyline fill="none" stroke="black" points="276,-144.5 276,-202.5 "/>
<text text-anchor="start" x="282" y="-191.3" font-family="Arial" font-size="9.00">PK id</text>
<text text-anchor="start" x="282" y="-181.3" font-family="Arial" font-size="9.00">FK azienda_id</text>
<text text-anchor="start" x="282" y="-171.3" font-family="Arial" font-size="9.00">nome</text>
<text text-anchor="start" x="282" y="-161.3" font-family="Arial" font-size="9.00">cognome</text>
<text text-anchor="start" x="282" y="-151.3" font-family="Arial" font-size="9.00">email</text>
</g>
<!-- azienda&#45;&gt;persona -->
<g id="edge4" class="edge">
<title>azienda&#45;&gt;persona</title>
<path fill="none" stroke="black" d="M140.22,-387.25C195.41,-387.25 263,-387.25 263,-387.25 263,-387.25 263,-209.77 263,-209.77"/>
<polygon fill="black" stroke="black" points="265.45,-209.77 263,-202.77 260.55,-209.77 265.45,-209.77"/>
<text text-anchor="middle" x="179.5" y="-200.1" font-family="Arial" font-size="8.00">1:N</text>
</g>
<!-- responsabilita -->
<g id="node11" class="node">
<title>responsabilita</title>
<polygon fill="none" stroke="black" points="697.5,-239.5 697.5,-317.5 865.5,-317.5 865.5,-239.5 697.5,-239.5"/>
<text text-anchor="middle" x="742" y="-276.3" font-family="Arial" font-size="9.00">RESPONSABILITA</text>
<polyline fill="none" stroke="black" points="786.5,-239.5 786.5,-317.5 "/>
<text text-anchor="start" x="792.5" y="-306.3" font-family="Arial" font-size="9.00">PK id</text>
<text text-anchor="start" x="792.5" y="-296.3" font-family="Arial" font-size="9.00">FK azienda_id</text>
<text text-anchor="start" x="792.5" y="-286.3" font-family="Arial" font-size="9.00">FK persona_id</text>
<text text-anchor="start" x="792.5" y="-276.3" font-family="Arial" font-size="9.00">FK ruolo_id</text>
<text text-anchor="start" x="792.5" y="-266.3" font-family="Arial" font-size="9.00">FK asset_id</text>
<text text-anchor="start" x="792.5" y="-256.3" font-family="Arial" font-size="9.00">FK servizio_id</text>
<text text-anchor="start" x="792.5" y="-246.3" font-family="Arial" font-size="9.00">periodo_validita</text>
</g>
<!-- azienda&#45;&gt;responsabilita -->
<g id="edge6" class="edge">
<title>azienda&#45;&gt;responsabilita</title>
<path fill="none" stroke="black" d="M94,-371.37C94,-337.52 94,-286.25 94,-286.25 94,-286.25 690.2,-286.25 690.2,-286.25"/>
<polygon fill="black" stroke="black" points="690.2,-288.7 697.2,-286.25 690.2,-283.8 690.2,-288.7"/>
<text text-anchor="middle" x="387.5" y="-255.1" font-family="Arial" font-size="8.00">1:N</text>
</g>
<!-- punto_contatto -->
<g id="node12" class="node">
<title>punto_contatto</title>
<polygon fill="none" stroke="black" points="427,-0.5 427,-58.5 597,-58.5 597,-0.5 427,-0.5"/>
<text text-anchor="middle" x="475.5" y="-27.3" font-family="Arial" font-size="9.00">PUNTO_CONTATTO</text>
<polyline fill="none" stroke="black" points="524,-0.5 524,-58.5 "/>
<text text-anchor="start" x="530" y="-47.3" font-family="Arial" font-size="9.00">PK id</text>
<text text-anchor="start" x="530" y="-37.3" font-family="Arial" font-size="9.00">FK azienda_id</text>
<text text-anchor="start" x="530" y="-27.3" font-family="Arial" font-size="9.00">FK persona_id</text>
<text text-anchor="start" x="530" y="-17.3" font-family="Arial" font-size="9.00">ambito</text>
<text text-anchor="start" x="530" y="-7.3" font-family="Arial" font-size="9.00">principale</text>
</g>
<!-- azienda&#45;&gt;punto_contatto -->
<g id="edge7" class="edge">
<title>azienda&#45;&gt;punto_contatto</title>
<path fill="none" stroke="black" d="M47,-371.39C47,-283.93 47,-29.5 47,-29.5 47,-29.5 419.98,-29.5 419.98,-29.5"/>
<polygon fill="black" stroke="black" points="419.98,-31.95 426.98,-29.5 419.98,-27.05 419.98,-31.95"/>
<text text-anchor="middle" x="283.5" y="-69.1" font-family="Arial" font-size="8.00">1:N</text>
</g>
<!-- sede&#45;&gt;asset -->
<g id="edge8" class="edge">
<title>sede&#45;&gt;asset</title>
<path fill="none" stroke="black" d="M338.23,-618.5C338.23,-618.5 443.47,-618.5 443.47,-618.5"/>
<polygon fill="black" stroke="black" points="443.47,-620.95 450.47,-618.5 443.47,-616.05 443.47,-620.95"/>
<text text-anchor="middle" x="387.5" y="-621.1" font-family="Arial" font-size="8.00">1:N</text>
</g>
<!-- tipo_asset -->
<g id="node3" class="node">
<title>tipo_asset</title>
<polygon fill="none" stroke="black" points="220,-523.5 220,-561.5 347,-561.5 347,-523.5 220,-523.5"/>
<text text-anchor="middle" x="253.5" y="-540.3" font-family="Arial" font-size="9.00">TIPO_ASSET</text>
<polyline fill="none" stroke="black" points="287,-523.5 287,-561.5 "/>
<text text-anchor="start" x="293" y="-550.3" font-family="Arial" font-size="9.00">PK id</text>
<text text-anchor="start" x="293" y="-540.3" font-family="Arial" font-size="9.00">UK codice</text>
<text text-anchor="start" x="293" y="-530.3" font-family="Arial" font-size="9.00">descrizione</text>
</g>
<!-- tipo_asset&#45;&gt;asset -->
<g id="edge9" class="edge">
<title>tipo_asset&#45;&gt;asset</title>
<path fill="none" stroke="black" d="M343,-561.55C343,-569.68 343,-577.33 343,-577.33 343,-577.33 443.03,-577.33 443.03,-577.33"/>
<polygon fill="black" stroke="black" points="443.03,-579.78 450.03,-577.33 443.03,-574.88 443.03,-579.78"/>
<text text-anchor="middle" x="387.5" y="-545.1" font-family="Arial" font-size="8.00">1:N</text>
</g>
<!-- asset_servizio -->
<g id="node6" class="node">
<title>asset_servizio</title>
<polygon fill="none" stroke="black" points="692,-564.5 692,-622.5 871,-622.5 871,-564.5 692,-564.5"/>
<text text-anchor="middle" x="736" y="-591.3" font-family="Arial" font-size="9.00">ASSET_SERVIZIO</text>
<polyline fill="none" stroke="black" points="780,-564.5 780,-622.5 "/>
<text text-anchor="start" x="786" y="-611.3" font-family="Arial" font-size="9.00">PK/FK asset_id</text>
<text text-anchor="start" x="786" y="-601.3" font-family="Arial" font-size="9.00">PK/FK servizio_id</text>
<text text-anchor="start" x="786" y="-591.3" font-family="Arial" font-size="9.00">FK azienda_id</text>
<text text-anchor="start" x="786" y="-581.3" font-family="Arial" font-size="9.00">ruolo_supporto</text>
<text text-anchor="start" x="786" y="-571.3" font-family="Arial" font-size="9.00">livello_dipendenza</text>
</g>
<!-- asset&#45;&gt;asset_servizio -->
<g id="edge10" class="edge">
<title>asset&#45;&gt;asset_servizio</title>
<path fill="none" stroke="black" d="M573.83,-609.5C573.83,-609.5 684.86,-609.5 684.86,-609.5"/>
<polygon fill="black" stroke="black" points="684.86,-611.95 691.86,-609.5 684.86,-607.05 684.86,-611.95"/>
<text text-anchor="middle" x="636.5" y="-665.1" font-family="Arial" font-size="8.00">1:N</text>
</g>
<!-- asset&#45;&gt;dipendenza -->
<g id="edge13" class="edge">
<title>asset&#45;&gt;dipendenza</title>
<path fill="none" stroke="black" d="M573.7,-596C624.08,-596 687,-596 687,-596 687,-596 687,-458.87 687,-458.87"/>
<polygon fill="black" stroke="black" points="689.45,-458.87 687,-451.87 684.55,-458.87 689.45,-458.87"/>
<text text-anchor="middle" x="636.5" y="-619.1" font-family="Arial" font-size="8.00">0:N</text>
</g>
<!-- asset&#45;&gt;responsabilita -->
<g id="edge17" class="edge">
<title>asset&#45;&gt;responsabilita</title>
<path fill="none" stroke="black" d="M573.73,-582.5C610.48,-582.5 650,-582.5 650,-582.5 650,-582.5 650,-312.67 650,-312.67 650,-312.67 690.47,-312.67 690.47,-312.67"/>
<polygon fill="black" stroke="black" points="690.47,-315.12 697.47,-312.67 690.47,-310.22 690.47,-315.12"/>
<text text-anchor="middle" x="636.5" y="-488.1" font-family="Arial" font-size="8.00">0:N</text>
</g>
<!-- audit_log -->
<g id="node13" class="node">
<title>audit_log</title>
<polygon fill="none" stroke="black" points="971,-432.5 971,-500.5 1111,-500.5 1111,-432.5 971,-432.5"/>
<text text-anchor="middle" x="1003" y="-464.3" font-family="Arial" font-size="9.00">AUDIT_LOG</text>
<polyline fill="none" stroke="black" points="1035,-432.5 1035,-500.5 "/>
<text text-anchor="start" x="1041" y="-489.3" font-family="Arial" font-size="9.00">PK id</text>
<text text-anchor="start" x="1041" y="-479.3" font-family="Arial" font-size="9.00">tabella</text>
<text text-anchor="start" x="1041" y="-469.3" font-family="Arial" font-size="9.00">record_id</text>
<text text-anchor="start" x="1041" y="-459.3" font-family="Arial" font-size="9.00">operazione</text>
<text text-anchor="start" x="1041" y="-449.3" font-family="Arial" font-size="9.00">dati_precedenti</text>
<text text-anchor="start" x="1041" y="-439.3" font-family="Arial" font-size="9.00">dati_successivi</text>
</g>
<!-- asset&#45;&gt;audit_log -->
<g id="edge20" class="edge">
<title>asset&#45;&gt;audit_log</title>
<path fill="none" stroke="black" stroke-dasharray="5,2" d="M573.72,-645.5C713.26,-645.5 1041,-645.5 1041,-645.5 1041,-645.5 1041,-507.59 1041,-507.59"/>
<polygon fill="black" stroke="black" points="1043.45,-507.59 1041,-500.59 1038.55,-507.59 1043.45,-507.59"/>
<text text-anchor="middle" x="781.5" y="-696.1" font-family="Arial" font-size="8.00">audit</text>
</g>
<!-- servizio&#45;&gt;asset_servizio -->
<g id="edge11" class="edge">
<title>servizio&#45;&gt;asset_servizio</title>
<path fill="none" stroke="black" d="M574.62,-515C654.38,-515 782,-515 782,-515 782,-515 782,-557.27 782,-557.27"/>
<polygon fill="black" stroke="black" points="779.55,-557.27 782,-564.27 784.45,-557.27 779.55,-557.27"/>
<text text-anchor="middle" x="636.5" y="-573.1" font-family="Arial" font-size="8.00">1:N</text>
</g>
<!-- servizio&#45;&gt;dipendenza -->
<g id="edge14" class="edge">
<title>servizio&#45;&gt;dipendenza</title>
<path fill="none" stroke="black" d="M574.82,-476.5C623.25,-476.5 682,-476.5 682,-476.5 682,-476.5 682,-458.57 682,-458.57"/>
<polygon fill="black" stroke="black" points="684.45,-458.57 682,-451.57 679.55,-458.57 684.45,-458.57"/>
<text text-anchor="middle" x="636.5" y="-442.1" font-family="Arial" font-size="8.00">0:N</text>
</g>
<!-- servizio&#45;&gt;responsabilita -->
<g id="edge18" class="edge">
<title>servizio&#45;&gt;responsabilita</title>
<path fill="none" stroke="black" d="M574.55,-464.25C600.2,-464.25 624,-464.25 624,-464.25 624,-464.25 624,-307.33 624,-307.33 624,-307.33 690.22,-307.33 690.22,-307.33"/>
<polygon fill="black" stroke="black" points="690.22,-309.78 697.22,-307.33 690.22,-304.88 690.22,-309.78"/>
<text text-anchor="middle" x="636.5" y="-309.1" font-family="Arial" font-size="8.00">0:N</text>
</g>
<!-- servizio&#45;&gt;audit_log -->
<g id="edge21" class="edge">
<title>servizio&#45;&gt;audit_log</title>
<path fill="none" stroke="black" stroke-dasharray="5,2" d="M574.76,-488.75C574.76,-488.75 963.77,-488.75 963.77,-488.75"/>
<polygon fill="black" stroke="black" points="963.77,-491.2 970.77,-488.75 963.77,-486.3 963.77,-491.2"/>
<text text-anchor="middle" x="781.5" y="-519.1" font-family="Arial" font-size="8.00">audit</text>
</g>
<!-- fornitore -->
<g id="node7" class="node">
<title>fornitore</title>
<polygon fill="none" stroke="black" points="432,-302.5 432,-350.5 592,-350.5 592,-302.5 432,-302.5"/>
<text text-anchor="middle" x="464.5" y="-324.3" font-family="Arial" font-size="9.00">FORNITORE</text>
<polyline fill="none" stroke="black" points="497,-302.5 497,-350.5 "/>
<text text-anchor="start" x="503" y="-339.3" font-family="Arial" font-size="9.00">PK id</text>
<text text-anchor="start" x="503" y="-329.3" font-family="Arial" font-size="9.00">ragione_sociale</text>
<text text-anchor="start" x="503" y="-319.3" font-family="Arial" font-size="9.00">identificativo_fiscale</text>
<text text-anchor="start" x="503" y="-309.3" font-family="Arial" font-size="9.00">paese</text>
</g>
<!-- fornitore&#45;&gt;dipendenza -->
<g id="edge12" class="edge">
<title>fornitore&#45;&gt;dipendenza</title>
<path fill="none" stroke="black" d="M592.07,-334.5C638.15,-334.5 687,-334.5 687,-334.5 687,-334.5 687,-366.04 687,-366.04"/>
<polygon fill="black" stroke="black" points="684.55,-366.04 687,-373.04 689.45,-366.04 684.55,-366.04"/>
<text text-anchor="middle" x="636.5" y="-355.1" font-family="Arial" font-size="8.00">1:N</text>
</g>
<!-- dipendenza&#45;&gt;audit_log -->
<g id="edge22" class="edge">
<title>dipendenza&#45;&gt;audit_log</title>
<path fill="none" stroke="black" stroke-dasharray="5,2" d="M887.05,-442C887.05,-442 963.82,-442 963.82,-442"/>
<polygon fill="black" stroke="black" points="963.82,-444.45 970.82,-442 963.82,-439.55 963.82,-444.45"/>
<text text-anchor="middle" x="929" y="-454.1" font-family="Arial" font-size="8.00">audit</text>
</g>
<!-- persona&#45;&gt;responsabilita -->
<g id="edge15" class="edge">
<title>persona&#45;&gt;responsabilita</title>
<path fill="none" stroke="black" d="M305,-202.6C305,-231.18 305,-270.5 305,-270.5 305,-270.5 690.41,-270.5 690.41,-270.5"/>
<polygon fill="black" stroke="black" points="690.41,-272.95 697.41,-270.5 690.41,-268.05 690.41,-272.95"/>
<text text-anchor="middle" x="512" y="-197.1" font-family="Arial" font-size="8.00">1:N</text>
</g>
<!-- persona&#45;&gt;punto_contatto -->
<g id="edge19" class="edge">
<title>persona&#45;&gt;punto_contatto</title>
<path fill="none" stroke="black" d="M348.19,-173.5C393.51,-173.5 446,-173.5 446,-173.5 446,-173.5 446,-65.64 446,-65.64"/>
<polygon fill="black" stroke="black" points="448.45,-65.64 446,-58.64 443.55,-65.64 448.45,-65.64"/>
<text text-anchor="middle" x="387.5" y="-163.1" font-family="Arial" font-size="8.00">1:N</text>
</g>
<!-- ruolo -->
<g id="node10" class="node">
<title>ruolo</title>
<polygon fill="none" stroke="black" points="459.5,-91.5 459.5,-129.5 564.5,-129.5 564.5,-91.5 459.5,-91.5"/>
<text text-anchor="middle" x="482" y="-108.3" font-family="Arial" font-size="9.00">RUOLO</text>
<polyline fill="none" stroke="black" points="504.5,-91.5 504.5,-129.5 "/>
<text text-anchor="start" x="510.5" y="-118.3" font-family="Arial" font-size="9.00">PK id</text>
<text text-anchor="start" x="510.5" y="-108.3" font-family="Arial" font-size="9.00">UK codice</text>
<text text-anchor="start" x="510.5" y="-98.3" font-family="Arial" font-size="9.00">descrizione</text>
</g>
<!-- ruolo&#45;&gt;responsabilita -->
<g id="edge16" class="edge">
<title>ruolo&#45;&gt;responsabilita</title>
<path fill="none" stroke="black" d="M512,-129.66C512,-168.89 512,-254.75 512,-254.75 512,-254.75 690.34,-254.75 690.34,-254.75"/>
<polygon fill="black" stroke="black" points="690.34,-257.2 697.34,-254.75 690.34,-252.3 690.34,-257.2"/>
<text text-anchor="middle" x="636.5" y="-113.1" font-family="Arial" font-size="8.00">1:N</text>
</g>
<!-- responsabilita&#45;&gt;audit_log -->
<g id="edge23" class="edge">
<title>responsabilita&#45;&gt;audit_log</title>
<path fill="none" stroke="black" stroke-dasharray="5,2" d="M865.75,-278.5C941.52,-278.5 1041,-278.5 1041,-278.5 1041,-278.5 1041,-425.45 1041,-425.45"/>
<polygon fill="black" stroke="black" points="1038.55,-425.45 1041,-432.45 1043.45,-425.45 1038.55,-425.45"/>
<text text-anchor="middle" x="929" y="-339.1" font-family="Arial" font-size="8.00">audit</text>
</g>
</g>
</svg>
